# xmcd
#
# Track frame offsets: 
#        150
#        35296
#        69726
#        100338
#        127545
#        163415
#        190444
#        219299
#        246212
#        280055
#
# Disc length: 4325 seconds
#
# Revision: 1
# Processed by: cddbd v1.5.2PL0 Copyright (c) Steve Scherf et al.
# Submitted via: ExactAudioCopy v1.0b3
#
DISCID=8c10e30a
DTITLE=Khanh Ly - Niem Khuc Hoa Vang
DYEAR=1994
DGENRE=
TTITLE0=Khi xa Sai Gon
TTITLE1=Niem khuc hoa vang
TTITLE2=1954 cha bo que, 1975 con bo nuoc
TTITLE3=Ta o troi Tay nho troi Dong
TTITLE4=Dut bao bat dau nuoc mat
TTITLE5=Loi ru cho Da Nang
TTITLE6=Con co bao gio
TTITLE7=Gan nhu niem tuyet vong
TTITLE8=Em theo doan luu dan
TTITLE9=Me VN oi chung con van con day
EXTD=
EXTT0=
EXTT1=
EXTT2=
EXTT3=
EXTT4=
EXTT5=
EXTT6=
EXTT7=
EXTT8=
EXTT9=
PLAYORDER=
